<?xml version="1.0" encoding="UTF-8" standalone="no"?>
<svg xmlns="http://www.w3.org/2000/svg" style="fill: #006f35" viewBox="0 0 503.94901 504.03247" version="1.1">
  <g transform="translate(-98.0045,-28.005121)">
    <path d="m 236.54,65.715 40.918,40.727 c -9.5312,11.742 -16.391,25.871 -19.402,41.582 26.066,-21.797 57.711,-34.652 92.133,-34.652 34.375,0 65.957,12.809 91.984,34.547 -3.0352,-15.738 -9.9375,-29.879 -19.512,-41.625 l 40.746,-40.578 c 20.477,-23.062 -10.133,-50.477 -30.789,-31.121 -14.844,14.91 -30.469,30.156 -44.949,45.047 -11.574,-5.0898 -24.273,-7.9531 -37.57,-7.957 -13.367,0.01172 -26.141,2.8945 -37.762,8.043 C 297.821,64.63 282.317,49.552 267.325,34.595 244.071,14.146 217.18,46.036 236.536,65.716 Z" />
    <path d="m 127.35,142.27 94.691,94.566 c -7.3477,18.695 -11.938,38.852 -13.562,59.527 h -87.418 c -30.742,-1.7266 -30.742,45.469 0,43.742 h 88.574 c 2.5547,19.75 7.8359,38.812 15.609,56.363 l -97.891,97.73 c -20.625,20.648 10.25,51.688 30.875,31.039 l 90.109,-89.988 c 26.703,33.66 63.273,52.637 101.45,52.641 38.25,-0.0859 74.859,-19.172 101.54,-52.984 l 90.406,90.332 c 20.625,20.645 51.5,-10.391 30.875,-31.039 l -98.062,-97.902 c 7.6484,-17.523 12.816,-36.527 15.289,-56.191 h 89.062 c 30.742,1.7266 30.742,-45.469 0,-43.742 h -87.891 c -1.5703,-20.582 -6.082,-40.652 -13.328,-59.293 l 94.926,-94.801 c 19.789,-21.492 -8.8906,-50.898 -30.875,-31.039 l -85.738,85.668 c -21.969,-30.688 -51.691,-50.91 -84.488,-57.156 1.25,93.5 0,188.33 0,282.27 0.66016,29.859 -43.809,29.859 -43.145,0 2.168,-93.766 -3.7578,-188.88 0,-282.16 -32.809,6.0977 -62.594,26.176 -84.648,56.75 l -85.48,-85.367 c -20.977,-19.719 -50.875,8.5039 -30.875,31.039 z" />
  </g>
</svg>
