<?xml version="1.0" encoding="UTF-8" standalone="no"?>
<svg xmlns="http://www.w3.org/2000/svg" style="fill: #006f35" viewBox="0 0 548.54187 501.13776" version="1.1">
  <path d="m 528.64923,354.27775 c -46.633,-80.742 -122.95,-212.95 -169.59,-293.68 -46.625,-80.797 -122.95,-80.797 -169.59,0 -46.602,80.73 -122.929997,212.94 -169.569997,293.68 -46.625,80.785 -8.4805,146.86 84.796997,146.86 h 339.14 c 93.27,0 131.44,-66.074 84.805,-146.86 z m -256.62,57.66 c -23.867,0 -43.188,-19.336 -43.188,-43.199 0,-23.867 19.32,-43.211 43.188,-43.211 23.871,0 43.203,19.344 43.203,43.211 0.004,23.859 -19.328,43.199 -43.203,43.199 z m 44.809,-157.31 c 0,24.734 -20.07,44.812 -44.805,44.812 -24.73,0 -44.793,-20.074 -44.793,-44.812 l -0.004,-76.793 c 0,-24.742 20.066,-44.805 44.793,-44.805 24.734,0 44.805,20.066 44.805,44.805 z" />
</svg>
