<?xml version="1.0" encoding="UTF-8" standalone="no"?>
<svg xmlns="http://www.w3.org/2000/svg" style="fill: #006f35" viewBox="0 0 560.00403 560" version="1.1">
  <g transform="translate(-69.996)">
    <path d="M 318.89,44.84 C 318.89,20.078 298.812,0 274.046,0 H 114.836 C 90.074,0 69.996,20.078 69.996,44.84 v 159.21 c 0,24.766 20.078,44.844 44.84,44.844 h 159.21 c 24.766,0 44.844,-20.078 44.844,-44.844 z" />
    <path d="M 630,44.84 C 630,20.078 609.922,0 585.16,0 H 425.95 c -24.766,0 -44.844,20.078 -44.844,44.84 v 159.21 c 0,24.766 20.078,44.844 44.844,44.844 h 159.21 c 24.762,0 44.84,-20.078 44.84,-44.844 z" />
    <path d="m 318.89,355.95 c 0,-24.766 -20.078,-44.844 -44.844,-44.844 h -159.21 c -24.762,0 -44.84,20.078 -44.84,44.844 v 159.21 c 0,24.762 20.078,44.84 44.84,44.84 h 159.21 c 24.766,0 44.844,-20.078 44.844,-44.84 z" />
    <path d="m 630,355.95 c 0,-24.766 -20.078,-44.844 -44.84,-44.844 H 425.95 c -24.766,0 -44.844,20.078 -44.844,44.844 v 159.21 c 0,24.762 20.078,44.84 44.844,44.84 H 585.16 C 609.922,560 630,539.922 630,515.16 Z" />
  </g>
</svg>
