<svg fill="#006f35" xmlns="http://www.w3.org/2000/svg" xmlns:xlink="http://www.w3.org/1999/xlink" viewBox="0 0 18 18" version="1.1" x="0px" y="0px"><g stroke="none" stroke-width="1" fill="none" fill-rule="evenodd"><path d="M15.5,10 C16.881,10 18,11.119 18,12.5 L18,15.5 C18,16.881 16.881,18 15.5,18 L12.5,18 C11.119,18 10,16.881 10,15.5 L10,12.5 C10,11.119 11.119,10 12.5,10 L15.5,10 Z M5.5,10 C6.881,10 8,11.119 8,12.5 L8,15.5 C8,16.881 6.881,18 5.5,18 L2.5,18 C1.119,18 0,16.881 0,15.5 L0,12.5 C0,11.119 1.119,10 2.5,10 L5.5,10 Z M5.5,0 C6.881,0 8,1.119 8,2.5 L8,5.5 C8,6.881 6.881,8 5.5,8 L2.5,8 C1.119,8 0,6.881 0,5.5 L0,2.5 C0,1.119 1.119,0 2.5,0 L5.5,0 Z M15.5,0 C16.881,0 18,1.119 18,2.5 L18,5.5 C18,6.881 16.881,8 15.5,8 L12.5,8 C11.119,8 10,6.881 10,5.5 L10,2.5 C10,1.119 11.119,0 12.5,0 L15.5,0 Z" fill="#006f35"></path></g></svg>