<svg viewBox="0 0 500 500" xmlns="http://www.w3.org/2000/svg">
    <circle cx="250" cy="250" fill="#006f35" r="250"/>
    <path d="m231 61c-11 0-23 1-34 5-19 4-35 11-50 23-28 19-45 51-46 84-2 21 2 43 14 60 13 18 31 31 51 39 13 6 28 11 43 15 25 9 51 13 75 23 17 5 33 19 33 38 2 23-21 39-41 43-24 3-51 4-74-5-16-5-32-15-47-24h-1c-1-1-16-11-18-12-7-5-31-22-33-22v60s12 8 15 9c0 1 31 20 47 27 12 6 24 11 36 15 20 6 40 8 60 8 8-1 16-1 24-3 25-3 47-14 67-28 29-22 54-54 57-91 2-29-9-57-28-78-18-20-44-28-69-35-32-9-66-15-97-28-18-6-32-25-28-44 2-16 15-27 29-31 19-3 39-3 58 1 15 2 29 8 42 14 23 11 44 28 66 42 0-19 0-38 0-57-14-10-29-20-45-27-14-7-31-13-47-16-19-3-39-6-59-5z" fill="#fff"/>
</svg>
