<?xml version="1.0" encoding="utf-8"?>
<svg xmlns="http://www.w3.org/2000/svg" viewBox="0 0 365.892 365.892">
    <g style="fill: #e15757">
        <circle cx="182.945" cy="286.681" r="41.494"/>
        <path d="M182.946,176.029c-35.658,0-69.337,17.345-90.09,46.398c-5.921,8.288-4.001,19.806,4.286,25.726c3.249,2.321,6.994,3.438,10.704,3.438c5.754,0,11.423-2.686,15.021-7.724c13.846-19.383,36.305-30.954,60.078-30.954c23.775,0,46.233,11.571,60.077,30.953c5.919,8.286,17.437,10.209,25.726,4.288c8.288-5.92,10.208-17.438,4.288-25.726C252.285,193.373,218.606,176.029,182.946,176.029z"/>
        <path d="M182.946,106.873c-50.938,0-99.694,21.749-133.77,59.67c-6.807,7.576-6.185,19.236,1.392,26.044c3.523,3.166,7.929,4.725,12.32,4.725c5.051-0.001,10.082-2.063,13.723-6.116c27.091-30.148,65.849-47.439,106.336-47.439s79.246,17.291,106.338,47.438c6.808,7.576,18.468,8.198,26.043,1.391c7.576-6.808,8.198-18.468,1.391-26.043C282.641,128.621,233.883,106.873,182.946,106.873z"/>
    </g>
</svg>
